<?xml version="1.0" standalone="no"?>
<!DOCTYPE svg PUBLIC "-//W3C//DTD SVG 20010904//EN"
 "http://www.w3.org/TR/2001/REC-SVG-20010904/DTD/svg10.dtd">
<svg version="1.0" xmlns="http://www.w3.org/2000/svg"
 width="160.000000pt" height="160.000000pt" viewBox="0 0 160.000000 160.000000"
 preserveAspectRatio="xMidYMid meet">

<g transform="translate(0.000000,160.000000) scale(0.100000,-0.100000)"
fill="#000000" stroke="none">
<path d="M0 800 l0 -800 800 0 800 0 0 800 0 800 -800 0 -800 0 0 -800z m502
288 c16 -18 80 -71 141 -118 91 -70 116 -95 139 -139 16 -31 28 -45 28 -34 0
36 56 98 151 170 52 39 111 89 133 111 43 45 66 45 66 2 0 -41 -14 -73 -52
-116 -25 -28 -28 -35 -11 -26 31 17 53 15 53 -6 0 -27 -28 -61 -79 -94 -35
-23 -40 -29 -20 -24 17 4 31 1 39 -9 20 -24 -34 -68 -115 -95 -90 -29 -165
-67 -165 -83 0 -7 -5 -5 -10 5 -9 15 -83 49 -201 92 -55 20 -94 58 -85 82 4
12 13 14 32 10 17 -5 23 -3 19 4 -8 12 5 13 24 1 22 -14 5 -28 -29 -23 -62 9
-24 -35 58 -67 29 -12 57 -21 61 -21 9 0 -1 58 -20 118 -12 36 -36 41 -82 17
-34 -17 -53 -10 -91 36 -31 37 -34 69 -7 69 11 0 23 -4 26 -10 3 -5 11 -10 16
-10 6 0 -5 19 -25 41 -44 52 -62 100 -46 129 14 26 17 26 52 -12z m-320 -544
l12 -25 13 25 c13 25 33 35 33 17 0 -21 -44 -111 -51 -104 -4 4 -17 32 -28 61
-18 44 -18 52 -6 52 9 0 21 -12 27 -26z m98 -35 c0 -44 -3 -60 -12 -57 -24 8
-22 118 2 118 6 0 10 -27 10 -61z m80 46 c0 -9 -9 -15 -22 -15 -22 0 -21 -1 7
-24 25 -21 28 -28 19 -43 -13 -20 -55 -24 -61 -5 -3 8 6 12 24 12 l28 1 -27
17 c-30 18 -36 40 -16 60 17 17 48 15 48 -3z m100 0 c0 -8 -7 -15 -15 -15 -11
0 -15 -12 -15 -46 0 -31 -4 -44 -12 -42 -7 3 -12 21 -11 46 1 30 -3 42 -13 42
-8 0 -14 7 -14 15 0 11 11 15 40 15 29 0 40 -4 40 -15z m94 -81 c6 -18 2 -20
-43 -20 l-48 0 15 35 c8 20 19 47 24 61 10 25 10 25 28 -15 9 -22 20 -49 24
-61z m132 44 c10 -29 20 -55 22 -58 1 -4 -20 -6 -48 -6 -28 0 -49 2 -48 6 2 3
12 29 22 58 11 29 23 52 26 52 3 0 15 -23 26 -52z m115 37 c0 -5 -10 -12 -23
-15 -25 -6 -33 -50 -10 -57 6 -3 12 2 12 11 0 9 7 16 16 16 27 0 14 -54 -14
-58 -51 -8 -81 60 -45 100 17 19 63 21 64 3z m103 -7 c8 -13 8 -23 -1 -36 -7
-12 -8 -24 -2 -33 12 -20 11 -29 -4 -29 -8 0 -19 10 -25 23 l-11 22 0 -22 c-1
-14 -7 -23 -16 -23 -12 0 -15 13 -15 61 l0 60 31 -3 c18 -2 37 -11 43 -20z
m46 -38 c0 -33 -4 -60 -10 -60 -6 0 -10 27 -10 60 0 33 4 60 10 60 6 0 10 -27
10 -60z m52 34 l12 -25 12 23 13 23 9 -25 10 -25 11 28 c6 15 17 27 25 27 12
0 11 -11 -7 -60 -24 -65 -32 -72 -43 -38 l-6 21 -14 -24 -13 -24 -15 36 c-23
55 -30 89 -17 89 6 0 17 -11 23 -26z m141 -34 c-1 -78 -23 -78 -23 0 0 44 3
61 12 58 8 -3 12 -24 11 -58z m87 28 c0 22 4 32 13 30 13 -5 23 -118 10 -118
-4 0 -20 14 -35 32 l-27 33 -1 -32 c0 -18 -4 -33 -10 -33 -6 0 -10 27 -10 63
l1 62 29 -35 29 -35 1 33z m130 18 c0 -9 -12 -16 -27 -18 -22 -2 -28 -8 -28
-28 0 -16 6 -26 18 -28 10 -2 17 3 17 12 0 9 5 16 10 16 6 0 10 -13 10 -30 0
-25 -4 -30 -25 -30 -30 0 -65 32 -65 60 0 11 9 29 20 40 23 23 70 27 70 6z
m80 -1 c0 -8 -7 -15 -15 -15 -21 0 -19 -13 6 -28 31 -20 22 -57 -15 -57 -16 0
-31 6 -33 13 -3 7 6 12 24 12 l28 1 -27 20 c-30 22 -35 38 -16 57 17 17 48 15
48 -3z m-915 -180 c0 -11 -8 -21 -17 -23 -14 -3 -18 3 -18 23 0 20 4 26 18 23
9 -2 17 -12 17 -23z m55 1 c0 -19 -4 -23 -20 -19 -30 8 -25 43 7 43 7 0 13
-11 13 -24z m58 1 c4 -20 -25 -34 -40 -19 -15 15 -1 44 19 40 10 -2 19 -11 21
-21z m51 12 c6 9 9 6 9 -13 0 -14 -4 -26 -9 -26 -5 0 -9 6 -9 13 0 8 -4 7 -10
-3 -7 -12 -10 -8 -10 15 0 23 3 27 10 15 8 -12 11 -13 19 -1z m42 4 c-11 -5
-11 -7 0 -14 12 -7 11 -9 -1 -9 -13 0 -13 -1 0 -10 13 -8 12 -10 -2 -10 -13 0
-18 8 -18 25 0 17 5 25 18 24 12 0 13 -2 3 -6z m79 -3 c-10 -6 -11 -10 -2 -10
6 0 12 -7 12 -15 0 -8 -8 -15 -17 -15 -15 0 -16 2 -3 10 10 6 11 10 3 10 -7 0
-13 7 -13 15 0 8 8 15 18 15 14 0 15 -2 2 -10z m46 -15 c0 -14 -4 -25 -8 -25
-4 0 -8 11 -8 25 0 14 4 25 8 25 4 0 8 -11 8 -25z m64 1 c0 -19 -4 -23 -20
-19 -30 8 -25 43 7 43 7 0 13 -11 13 -24z m43 11 c3 12 5 13 6 3 1 -17 -16
-47 -22 -40 -3 3 -8 16 -11 30 -7 23 -6 24 8 7 14 -18 14 -18 19 0z m37 -12
c0 -8 -4 -17 -10 -20 -6 -4 -10 5 -10 20 0 15 4 24 10 20 6 -3 10 -12 10 -20z
m38 18 c-10 -2 -18 -11 -18 -18 0 -7 8 -16 18 -18 15 -4 15 -5 0 -6 -9 0 -20
4 -23 9 -11 17 3 40 22 39 17 -1 17 -2 1 -6z m49 -8 c0 -8 -6 -15 -13 -15 -8
0 -11 6 -8 15 4 8 9 15 13 15 4 0 8 -7 8 -15z m43 5 c-10 -6 -11 -10 -2 -10 6
0 12 -7 12 -15 0 -8 -8 -15 -17 -15 -14 0 -15 2 -4 9 9 6 10 11 2 15 -17 11
-13 26 7 26 14 0 15 -2 2 -10z"/>
<path d="M460 1077 c0 -17 10 -28 35 -40 44 -21 109 -79 135 -122 17 -28 27
-34 65 -37 25 -2 45 -2 45 -1 0 1 -44 36 -97 77 -54 40 -114 90 -132 110 -41
42 -51 45 -51 13z"/>
<path d="M1099 1064 c-18 -20 -75 -67 -126 -105 -50 -37 -93 -71 -96 -76 -3
-4 15 -6 39 -5 37 3 47 9 64 37 26 43 91 101 135 122 25 12 35 23 35 40 0 32
-10 29 -51 -13z"/>
<path d="M488 1003 c11 -16 29 -37 41 -47 39 -36 19 -63 -23 -31 -47 35 -48 8
-2 -42 31 -34 36 -36 60 -25 15 7 36 12 46 12 11 0 20 6 20 14 0 29 -123 146
-154 146 -4 0 1 -12 12 -27z"/>
<path d="M1095 1011 c-39 -23 -115 -106 -115 -125 0 -7 12 -16 28 -18 15 -3
35 -9 44 -13 13 -5 28 3 54 29 39 39 38 68 -2 42 -13 -9 -28 -16 -34 -16 -17
0 -11 26 11 46 28 25 62 74 52 74 -4 0 -21 -8 -38 -19z"/>
<path d="M664 854 c4 -10 15 -49 24 -86 16 -63 19 -67 61 -88 24 -11 45 -19
48 -17 2 3 1 34 -3 70 -8 78 -34 127 -66 127 -13 0 -34 3 -47 7 -21 5 -23 4
-17 -13z"/>
<path d="M888 863 c-30 -3 -39 -10 -53 -40 -17 -36 -34 -163 -22 -163 4 0 27
10 52 22 31 15 45 28 45 42 0 20 19 88 35 129 5 11 3 16 -6 15 -8 -1 -30 -3
-51 -5z"/>
<path d="M947 814 c-24 -76 -28 -104 -17 -104 17 0 94 33 123 52 36 26 35 41
-3 36 -37 -6 -50 10 -25 28 23 17 17 23 -28 31 -34 5 -35 5 -50 -43z"/>
<path d="M860 530 c0 -5 5 -10 10 -10 6 0 10 5 10 10 0 6 -4 10 -10 10 -5 0
-10 -4 -10 -10z"/>
<path d="M500 374 c0 -8 5 -12 10 -9 6 3 10 10 10 16 0 5 -4 9 -10 9 -5 0 -10
-7 -10 -16z"/>
<path d="M605 381 c-6 -11 9 -23 19 -14 9 9 7 23 -3 23 -6 0 -12 -4 -16 -9z"/>
</g>
</svg>
